<?xml version="1.0" encoding="UTF-8"?>
<svg width="227px" height="125px" viewBox="0 0 227 125" version="1.1" xmlns="http://www.w3.org/2000/svg" xmlns:xlink="http://www.w3.org/1999/xlink">
    <title>Hamal Logo - light</title>
    <g id="Hamal-Logo---light" stroke="none" stroke-width="1" fill="none" fill-rule="evenodd">
        <g id="Hamal-Logo---dark" transform="translate(24.000000, 24.000000)" fill="#FFFFFF" fill-rule="nonzero">
            <polygon id="Path" points="178.588 36.4 178.588 5.2 151.028 5.2 151.028 11.44 170.476 11.44 170.476 36.4"></polygon>
            <polygon id="Path" points="159.244 36.4 159.244 17.628 151.132 17.628 151.132 36.4"></polygon>
            <polygon id="Path" points="124.568 36.4 124.568 11.44 135.072 11.44 135.072 36.4 143.184 36.4 143.184 11.44 145.576 11.44 145.576 5.2 114.064 5.2 114.064 11.44 116.404 11.44 116.404 36.4"></polygon>
            <path d="M86.396,36.4 L93.832,15.288 C94.3866667,13.6933333 94.9846667,12.61 95.626,12.038 C96.2673333,11.466 97.0386667,11.18 97.94,11.18 C99.084,11.18 99.916,11.5786667 100.436,12.376 C100.956,13.1733333 101.216,14.5253333 101.216,16.432 L101.216,16.432 L101.216,30.16 L93.52,30.16 L93.52,36.4 L109.12,36.4 L109.12,17.368 C109.12,12.9306667 108.244667,9.75 106.494,7.826 C104.743333,5.902 102.1,4.94 98.564,4.94 C95.8946667,4.94 93.7973333,5.47733333 92.272,6.552 C90.7466667,7.62666667 89.3773333,9.55066667 88.164,12.324 L88.164,12.324 L85.98,5.2 L77.972,5.2 L83.484,21.372 L78.18,36.4 L86.396,36.4 Z" id="Path"></path>
            <polygon id="Path" points="62.628 15.704 65.384 1.04 58.936 1.04 57.168 15.704"></polygon>
            <polygon id="Path" points="71.78 15.704 74.588 1.04 68.088 1.04 66.32 15.704"></polygon>
            <polygon id="Path" points="42.188 36.4 52.848 11.44 52.848 5.2 36.936 5.2 36.936 0 29.188 0 29.188 11.44 44.372 11.44 33.764 36.4"></polygon>
            <polygon id="Path" points="178.588 76.4 178.588 45.2 151.028 45.2 151.028 51.44 170.476 51.44 170.476 76.4"></polygon>
            <polygon id="Path" points="159.244 76.4 159.244 57.628 151.132 57.628 151.132 76.4"></polygon>
            <polygon id="Path" points="124.568 76.4 124.568 51.44 135.072 51.44 135.072 76.4 143.184 76.4 143.184 51.44 145.576 51.44 145.576 45.2 114.064 45.2 114.064 51.44 116.404 51.44 116.404 76.4"></polygon>
            <path d="M110.616,76.4 L110.616,70.16 L106.716,70.16 L106.716,55.392 C106.716,52.8613333 106.369333,50.8593333 105.676,49.386 C104.982667,47.9126667 103.873333,46.8466667 102.348,46.188 C100.822667,45.5293333 98.7253333,45.2 96.056,45.2 L96.056,45.2 L83.524,45.2 L83.524,51.44 L94.34,51.44 C95.9,51.44 97.0006667,51.778 97.642,52.454 C98.2833333,53.13 98.604,54.3 98.604,55.964 L98.604,55.964 L98.604,70.16 L83.524,70.16 L83.524,76.4 L110.616,76.4 Z" id="Path"></path>
            <path d="M77.54,76.4 L77.54,56.9 C77.54,52.8093333 76.5606667,49.8366667 74.602,47.982 C72.6433333,46.1273333 69.5493333,45.2 65.32,45.2 L65.32,45.2 L54.66,45.2 L54.66,51.44 L63.864,51.44 C65.8053333,51.44 67.2093333,51.96 68.076,53 C68.9426667,54.04 69.376,55.704 69.376,57.992 L69.376,57.992 L69.376,76.4 L77.54,76.4 Z" id="Path"></path>
            <path d="M27.2,76.4 C28.1013333,76.4 28.7513333,76.2093333 29.15,75.828 C29.5486667,75.4466667 29.748,74.84 29.748,74.008 L29.748,74.008 L29.748,51.44 L40.876,51.44 L40.876,76.4 L48.988,76.4 L48.988,45.2 L17.84,45.2 L17.84,51.44 L21.636,51.44 L21.636,70.16 L16.228,70.16 L16.228,76.4 L27.2,76.4 Z" id="Path"></path>
            <polygon id="Path" points="11.908 63.504 11.908 45.2 0 45.2 0 51.44 3.796 51.44 3.796 63.504"></polygon>
        </g>
    </g>
</svg>